<?xml version="1.0" standalone="no"?>
<!DOCTYPE svg PUBLIC "-//W3C//DTD SVG 20010904//EN"
 "http://www.w3.org/TR/2001/REC-SVG-20010904/DTD/svg10.dtd">
<svg version="1.0" xmlns="http://www.w3.org/2000/svg"
 width="427.000000pt" height="427.000000pt" viewBox="0 0 427.000000 427.000000"
 preserveAspectRatio="xMidYMid meet">
<metadata>
Created by potrace 1.11, written by Peter Selinger 2001-2013
</metadata>
<g transform="translate(0.000000,427.000000) scale(0.100000,-0.100000)"
fill="#000000" stroke="none">
<path d="M2095 4116 c-17 -19 -38 -55 -45 -81 l-13 -47 -19 38 c-28 59 -76
103 -97 90 -13 -9 7 -98 29 -128 l21 -28 -26 0 c-30 0 -85 -26 -85 -40 0 -12
53 -40 76 -40 15 0 14 -4 -8 -27 -14 -16 -32 -39 -41 -52 l-15 -23 -16 29
c-17 34 -51 60 -86 65 -21 3 -19 6 22 32 45 28 95 97 84 115 -11 17 -79 -13
-120 -51 -21 -21 -40 -38 -42 -38 -1 0 -1 11 2 25 6 36 -14 106 -39 133 -27
29 -32 28 -48 -9 -12 -31 -6 -92 16 -142 7 -18 6 -18 -31 1 -37 19 -77 27
-116 24 -51 -5 18 -79 89 -97 45 -11 46 -13 24 -24 -26 -14 -54 -72 -45 -95 5
-14 9 -14 32 -2 15 8 37 24 49 35 l23 21 5 -23 c13 -50 11 -62 -9 -72 -11 -6
-35 -30 -53 -53 l-33 -44 0 37 c0 40 -27 101 -59 129 -26 24 -35 16 -36 -34 0
-37 -1 -39 -25 -32 -39 11 -139 7 -152 -6 -23 -23 -27 -11 -7 22 23 40 35 134
19 156 -22 32 -80 -68 -80 -140 0 -25 0 -24 -16 5 -24 46 -55 76 -102 97 -108
48 -78 -55 44 -150 16 -13 23 -20 16 -17 -32 16 -162 -37 -162 -66 0 -5 19
-12 42 -16 49 -9 65 -8 102 1 24 6 25 5 16 -20 -6 -14 -10 -48 -10 -76 0 -46
1 -49 17 -37 35 29 73 93 73 123 0 27 4 24 45 -43 25 -40 58 -88 74 -108 l30
-36 -28 -28 c-28 -28 -51 -93 -51 -145 l0 -27 -23 34 c-26 38 -81 79 -108 79
-17 0 -17 -3 -4 -47 8 -28 27 -60 44 -75 l31 -27 -40 -11 c-22 -6 -46 -21 -55
-33 -15 -21 -14 -23 16 -35 18 -7 41 -11 51 -9 24 7 23 -5 -2 -28 -36 -32 -62
-13 -154 114 -47 66 -90 123 -96 126 -5 3 -10 13 -10 21 0 9 11 2 28 -17 23
-25 38 -32 78 -36 33 -3 55 0 68 10 18 13 18 15 -10 40 -17 16 -45 29 -72 33
-38 6 -42 8 -26 17 40 21 85 73 95 110 6 22 8 41 5 44 -11 12 -83 -36 -112
-74 l-31 -41 -6 50 c-7 57 -45 123 -77 133 -30 9 -34 1 -34 -54 1 -34 10 -65
31 -104 28 -52 29 -55 8 -41 -27 18 -102 25 -134 12 l-25 -9 21 -21 c12 -11
43 -28 69 -37 l49 -16 -52 -52 -53 -53 0 43 c0 42 -29 119 -49 131 -28 18 -49
-105 -27 -156 7 -16 5 -17 -24 -7 -30 11 -105 7 -117 -5 -10 -9 19 -36 60 -57
28 -15 50 -19 78 -15 21 3 39 4 39 3 0 -1 -4 -17 -9 -34 -11 -39 1 -91 29
-125 20 -23 20 -23 35 -4 17 22 20 73 6 108 l-9 24 46 -23 c49 -23 117 -30
142 -13 13 9 11 14 -13 35 -28 25 -123 59 -138 49 -5 -3 -9 -3 -9 0 0 3 18 15
39 26 22 11 52 36 67 55 14 19 30 32 35 29 5 -3 42 -60 82 -127 70 -119 72
-124 71 -187 0 -62 -3 -80 -19 -157 -13 -59 -26 -59 -114 2 -45 30 -86 55 -92
55 -20 0 -126 80 -180 137 -30 32 -86 96 -124 143 -38 47 -71 87 -74 90 -3 3
-19 20 -36 38 l-30 33 28 -10 c44 -17 112 0 169 41 26 18 28 22 14 30 -27 15
-99 16 -140 2 -21 -8 -40 -14 -42 -14 -1 0 8 19 21 43 31 53 34 157 5 157 -17
0 -61 -83 -67 -125 -6 -45 -6 -45 -22 -23 -33 49 -115 96 -135 78 -15 -14 13
-67 55 -105 22 -19 39 -36 39 -38 0 -2 -16 -4 -36 -5 -43 -3 -109 -35 -117
-56 -11 -27 81 -41 141 -22 20 7 21 5 12 -19 -5 -14 -10 -40 -10 -56 0 -16 -2
-29 -4 -29 -2 0 -23 11 -47 24 -58 32 -109 41 -154 26 -35 -11 -36 -13 -19
-31 22 -24 90 -50 140 -52 l39 -2 -36 -35 c-34 -32 -61 -101 -47 -116 15 -14
92 46 115 90 9 17 11 15 22 -15 12 -34 48 -79 63 -79 13 0 9 73 -6 101 l-14
27 52 5 c28 3 61 8 73 12 18 6 26 0 46 -32 40 -63 40 -89 0 -122 -18 -15 -68
-40 -111 -54 -92 -32 -106 -34 -94 -9 15 30 14 86 -2 107 -15 20 -16 20 -41
-9 -14 -16 -28 -47 -31 -68 l-7 -38 -39 45 c-38 43 -109 78 -125 61 -13 -13
31 -80 75 -113 l44 -33 -39 0 c-50 0 -124 -37 -143 -72 -19 -34 -12 -40 48
-41 36 0 63 7 104 29 l55 30 -15 -29 c-19 -38 -25 -113 -11 -139 11 -20 11
-20 35 3 28 26 59 102 51 124 -4 8 -2 15 3 15 6 0 10 -5 10 -10 0 -12 88 -70
106 -70 9 0 10 8 4 30 -20 68 -58 109 -107 113 -22 1 -22 9 0 13 7 1 63 17
126 34 133 38 187 37 229 -3 15 -14 47 -35 72 -47 25 -13 55 -31 68 -41 23
-17 23 -17 -24 -17 -39 0 -51 4 -68 25 -35 45 -105 83 -153 83 -31 0 -43 -4
-43 -14 0 -22 70 -75 115 -87 l40 -11 -38 -13 c-53 -18 -85 -41 -107 -78 -28
-46 -26 -64 8 -65 36 0 91 29 133 71 l34 34 -2 -62 c-1 -36 4 -73 12 -87 11
-23 11 -27 -8 -35 -19 -9 -19 -10 11 -32 17 -12 48 -28 68 -35 l38 -13 -47
-22 c-79 -38 -116 -116 -50 -105 52 9 68 16 106 46 l37 29 -1 -43 c-1 -24 3
-53 9 -64 10 -19 6 -21 -65 -34 l-76 -13 -46 53 c-56 65 -150 136 -192 145
l-31 7 31 19 c34 20 71 74 71 102 0 34 -88 8 -110 -33 -14 -27 -27 -25 -25 3
4 40 -24 111 -52 136 l-27 24 -7 -26 c-9 -34 -1 -95 18 -131 14 -27 14 -28 -3
-21 -82 34 -159 40 -190 14 -12 -10 -12 -15 3 -31 33 -37 84 -55 158 -57 l30
-1 -38 -31 c-56 -46 -88 -119 -52 -119 27 0 92 38 114 66 12 15 24 24 28 21 3
-4 3 -7 0 -7 -4 0 1 -22 12 -49 l18 -49 -54 -1 c-58 0 -124 -34 -105 -53 13
-13 88 -15 122 -4 24 8 25 8 7 -11 -37 -43 -46 -153 -12 -153 22 0 52 46 66
100 l13 49 23 -34 c13 -19 28 -35 34 -35 21 0 -4 -21 -69 -59 -100 -58 -107
-58 -108 -12 -2 45 -29 101 -49 101 -22 0 -40 -73 -28 -115 l11 -34 -41 26
c-41 26 -112 41 -141 30 -38 -15 26 -70 106 -91 29 -8 44 -15 32 -15 -51 -2
-134 -89 -134 -141 0 -48 92 -12 152 61 l33 39 2 -54 c1 -50 21 -108 42 -121
26 -16 52 115 31 154 -11 22 -11 22 17 8 15 -7 38 -12 51 -11 12 1 29 2 37 3
35 3 0 62 -46 79 -13 5 -42 8 -63 6 -50 -5 -39 6 44 42 36 15 110 55 165 88
81 48 109 60 150 62 28 1 70 7 94 12 50 12 159 10 179 -2 18 -11 -16 -48 -88
-93 -70 -44 -142 -114 -182 -175 -16 -27 -31 -48 -32 -48 -1 0 -2 16 -3 35 -1
19 -11 51 -23 71 l-23 36 -20 -21 c-27 -27 -35 -113 -14 -163 l15 -37 -45 25
c-50 26 -133 34 -133 11 0 -20 50 -68 86 -83 18 -8 49 -14 69 -14 l35 0 -35
-37 c-37 -39 -65 -90 -65 -120 -1 -11 -8 -3 -20 21 -25 49 -47 74 -82 92 -22
11 -28 12 -30 2 0 -7 -2 -20 -3 -28 -2 -23 24 -82 48 -108 l22 -23 -55 7 c-72
10 -73 10 -120 -6 -49 -16 -49 -35 -3 -63 38 -22 127 -26 164 -7 24 12 24 12
-3 -16 -47 -50 -77 -154 -45 -154 15 0 57 28 75 50 19 23 42 80 42 103 0 19 1
19 20 -2 10 -13 36 -29 56 -36 l38 -13 -32 -7 c-33 -7 -85 -59 -97 -95 -9 -28
-8 -28 41 -18 24 5 55 22 74 39 l31 31 -5 -33 c-5 -34 21 -110 42 -123 23 -14
45 114 28 162 -7 21 -6 23 14 17 50 -16 160 7 160 33 0 17 -64 37 -116 37
l-51 0 5 41 c2 23 -1 51 -7 63 l-12 22 38 -21 c21 -11 54 -29 73 -40 19 -11
42 -20 52 -20 21 0 88 -57 88 -74 0 -7 -52 -64 -116 -127 -64 -62 -131 -136
-149 -162 -31 -46 -33 -47 -39 -24 -7 29 -73 90 -87 82 -18 -12 -9 -80 16
-118 l26 -37 -26 10 c-60 23 -183 -1 -172 -33 5 -18 86 -36 137 -30 44 4 44 4
22 -12 -48 -35 -84 -145 -58 -180 11 -16 16 -14 53 21 25 24 48 59 59 90 l18
52 22 -47 c37 -80 105 -121 99 -59 -1 13 -3 32 -4 44 0 12 -12 37 -24 56 l-24
34 37 0 c48 0 96 29 80 49 -30 37 -115 38 -158 3 -28 -23 -7 18 40 76 77 95
110 108 144 58 12 -18 30 -66 40 -107 10 -41 21 -72 25 -70 8 6 4 55 -13 150
-14 82 -13 111 4 133 43 51 211 124 402 173 105 27 252 23 340 -9 169 -62 272
-161 406 -393 14 -24 63 -82 110 -129 91 -92 154 -130 281 -169 64 -19 171
-41 177 -36 2 1 -18 15 -42 29 -74 43 -209 161 -243 213 -17 26 -47 89 -66
139 -34 89 -116 232 -174 306 -90 113 -229 193 -373 214 -63 9 -217 7 -265 -4
-88 -20 -305 13 -344 52 -14 15 -13 17 6 31 11 8 28 30 37 49 17 36 22 116 7
116 -19 0 -61 -43 -72 -75 -13 -35 -29 -47 -29 -22 0 25 -60 95 -96 112 -49
23 -61 10 -44 -49 11 -41 71 -116 92 -116 4 0 8 -3 8 -7 0 -5 -20 -8 -44 -9
-43 -1 -117 -31 -123 -51 -5 -14 49 -35 92 -35 19 0 53 9 75 20 43 21 46 18
30 -24 -12 -32 -3 -89 17 -109 26 -26 -24 -18 -150 24 -157 53 -216 90 -251
158 -9 18 -16 41 -16 51 0 16 7 12 39 -19 32 -33 45 -39 80 -39 28 0 44 5 48
16 8 20 -32 61 -68 69 l-29 7 32 22 c60 40 98 120 58 122 -24 1 -72 -26 -107
-59 -47 -44 -41 -15 11 51 76 99 181 178 350 266 89 45 219 24 412 -69 112
-53 139 -71 185 -120 102 -110 124 -126 230 -166 194 -73 295 -141 355 -239
36 -58 53 -73 55 -47 0 6 3 21 5 32 60 271 -35 553 -266 790 -91 93 -130 148
-130 182 0 26 8 42 76 158 22 39 49 86 58 105 28 59 42 70 99 82 46 10 68 9
121 -3 36 -9 71 -12 78 -8 9 6 7 10 -7 15 -22 7 -178 75 -183 79 -2 1 15 38
37 81 22 45 47 114 56 159 24 115 24 115 46 73 11 -21 30 -45 42 -53 27 -17
87 -31 87 -19 0 22 -44 94 -61 99 -27 9 -23 20 9 23 68 6 144 55 127 82 -11
18 -99 5 -140 -20 l-35 -21 15 35 c19 45 22 125 5 156 l-12 23 -24 -39 c-13
-21 -24 -45 -25 -51 -1 -7 -3 -17 -4 -23 -1 -5 -3 -26 -4 -46 l-1 -36 -26 32
c-29 34 -73 60 -103 60 -17 0 -18 -3 -8 -36 11 -35 61 -94 81 -94 6 0 -8 -9
-31 -19 -23 -11 -46 -29 -53 -40 -9 -18 -7 -22 14 -31 25 -9 57 -7 78 6 20 13
0 -55 -42 -141 -21 -44 -66 -113 -99 -154 -34 -41 -80 -110 -104 -155 -47 -89
-111 -161 -152 -168 -19 -4 -35 1 -53 17 -21 18 -26 31 -26 71 0 27 3 65 7 84
5 19 10 73 12 120 3 47 5 87 5 90 0 3 7 -10 15 -28 22 -50 58 -78 110 -88 22
-4 23 -2 15 25 -12 44 -24 60 -56 82 l-29 19 35 0 c62 1 140 48 140 84 0 17
-99 4 -136 -18 l-41 -23 13 36 c21 61 21 127 1 155 -13 17 -15 16 -35 -16 -13
-20 -25 -61 -28 -95 l-7 -60 -32 36 c-34 37 -85 63 -103 52 -17 -10 20 -83 57
-114 20 -17 27 -27 17 -27 -45 0 -102 -54 -74 -71 20 -13 82 -11 97 4 20 18 5
-57 -22 -113 -37 -75 -81 -60 -116 40 -22 61 -21 323 1 345 3 4 28 9 54 12 27
2 63 11 80 18 40 16 136 136 159 197 22 58 42 69 42 23 0 -33 43 -105 63 -105
4 0 15 -3 23 -6 23 -8 15 70 -10 104 l-20 27 66 0 c54 0 72 4 95 22 l28 23
-28 11 c-33 13 -110 15 -145 4 -22 -7 -22 -7 -6 10 40 40 76 150 55 170 -20
21 -88 -63 -104 -128 l-7 -28 -17 38 c-16 37 -71 93 -91 93 -18 0 -8 -76 16
-117 l24 -43 -30 0 c-29 0 -79 -25 -79 -40 0 -14 66 -39 89 -33 l22 6 -23 -38
c-30 -52 -80 -101 -128 -125 l-40 -20 -21 21 c-18 18 -21 29 -15 73 7 65 39
160 69 206 13 19 33 59 45 88 40 100 149 248 168 229 3 -2 7 -14 9 -26 9 -46
17 -61 46 -86 37 -30 46 -31 54 -5 7 22 -12 90 -25 90 -4 0 -10 6 -13 13 -4
11 7 13 48 9 51 -4 125 18 125 39 0 20 -46 31 -111 27 l-68 -4 19 21 c27 29
50 88 50 130 0 44 -14 44 -55 1z m-316 -336 c20 -5 46 -10 59 -10 12 0 22 -3
22 -6 0 -20 -75 -124 -90 -124 -12 0 -80 138 -86 175 l-6 39 33 -32 c18 -18
49 -37 68 -42z m-281 -132 c7 -24 16 -49 19 -57 4 -11 -1 -12 -23 -6 -52 14
-112 14 -131 0 -17 -13 -17 -14 2 -30 44 -34 78 -47 121 -43 24 2 44 3 44 2 0
0 -9 -19 -20 -42 -15 -31 -19 -52 -14 -77 8 -43 17 -44 56 -5 26 27 30 36 25
69 l-5 38 36 -13 c20 -6 45 -10 55 -8 16 3 17 -1 11 -29 -25 -118 -66 -162
-123 -133 -42 22 -112 97 -195 206 -39 52 -78 100 -86 107 -12 9 -7 10 23 3
46 -10 92 2 138 34 19 13 39 25 44 25 6 1 16 -18 23 -41z m209 -60 c-3 -33 -9
-63 -13 -67 -5 -4 -28 2 -51 14 l-41 20 34 25 c18 14 39 37 46 52 19 42 31 21
25 -44z m-167 -360 c0 -5 -17 -8 -37 -8 -21 0 -57 -9 -81 -20 l-43 -19 19 27
c26 36 34 64 34 118 l0 45 54 -68 c30 -37 54 -71 54 -75z m-1038 -15 c14 -21
33 -51 43 -67 l19 -29 -32 17 c-18 9 -48 17 -67 18 l-34 1 20 25 c10 14 19 35
19 48 0 32 3 30 32 -13z m1074 -195 c2 -70 11 -150 18 -178 l13 -51 -21 19
c-31 28 -61 42 -93 42 l-28 1 21 17 c26 22 44 55 44 81 0 18 -3 18 -37 9 -50
-13 -61 -23 -75 -69 -11 -38 -12 -38 -26 -18 -8 11 -26 25 -41 31 -65 25 -134
11 -108 -22 22 -29 61 -50 91 -50 l29 0 -41 -30 c-46 -33 -66 -61 -76 -103 -6
-26 -5 -28 16 -22 38 12 85 47 104 79 l18 30 11 -54 c6 -30 16 -64 22 -75 15
-27 52 -60 59 -52 13 13 4 111 -14 148 -11 21 -19 39 -18 39 0 0 23 -8 50 -18
34 -14 59 -17 87 -12 38 7 39 7 68 -44 16 -28 50 -87 75 -131 54 -94 59 -136
21 -161 -38 -25 -124 -13 -236 31 -225 90 -332 207 -324 357 3 59 23 109 101
251 38 68 54 82 54 48 0 -22 45 -70 78 -82 38 -15 52 -11 52 15 0 23 -22 50
-64 79 -18 13 -18 14 5 12 35 -3 104 23 125 46 18 20 19 20 26 -8 5 -15 11
-85 14 -155z m-522 -391 c45 -35 49 -76 10 -112 -37 -34 -51 -32 -47 8 4 33
-14 78 -33 84 -6 2 -19 -13 -29 -33 -14 -31 -16 -45 -8 -81 10 -40 9 -43 -6
-30 -31 28 -89 52 -134 56 -4 1 0 12 8 25 25 38 34 83 25 117 l-9 31 25 -16
c28 -19 90 -24 105 -9 8 8 7 13 0 17 -6 4 -11 12 -11 18 0 5 15 -3 34 -18 18
-16 50 -42 70 -57z m189 -138 c36 -19 128 -76 232 -145 28 -18 100 -49 160
-69 71 -23 121 -46 142 -65 37 -33 78 -93 88 -130 7 -24 7 -24 -11 -9 -11 10
-44 32 -74 49 -152 90 -328 129 -615 136 -162 5 -180 7 -176 22 2 9 4 38 5 65
1 26 2 47 4 47 1 0 14 -8 28 -17 26 -17 134 -28 134 -13 0 14 -69 69 -93 75
-12 2 -35 6 -52 7 l-30 3 25 14 c31 18 137 48 170 48 14 1 42 -8 63 -18z
m-670 -94 c46 -27 133 -103 125 -110 -2 -2 -20 1 -40 7 -31 9 -41 8 -71 -10
l-35 -20 2 58 c1 44 -3 63 -18 79 -25 28 -14 27 37 -4z m137 -145 c0 -27 -22
-70 -48 -93 -20 -18 -21 -18 -37 17 -10 20 -21 36 -26 36 -5 0 -9 5 -9 10 0 6
13 10 29 10 16 0 39 9 52 20 31 25 39 25 39 0z m30 -629 c0 -10 -17 -31 -37
-47 -37 -28 -37 -28 -20 -4 9 14 22 37 28 52 12 30 29 29 29 -1z m588 -92 c37
-20 40 -24 25 -33 -24 -13 -173 -45 -173 -36 0 3 7 15 15 26 8 10 17 40 21 66
l6 47 32 -23 c17 -13 50 -34 74 -47z m-553 31 c3 -5 2 -10 -2 -10 -13 0 -43
-55 -45 -83 l-2 -25 -33 29 c-19 16 -43 29 -55 29 -31 0 -16 11 55 41 73 32
74 32 82 19z"/>
<path d="M2719 4083 c-11 -34 -8 -109 7 -146 6 -17 4 -17 -32 2 -46 24 -104
34 -123 22 -28 -18 33 -82 92 -96 l27 -7 -30 -34 c-38 -43 -41 -76 -6 -70 33
6 83 33 89 48 3 7 6 -3 7 -22 1 -19 3 -44 6 -55 27 -129 12 -171 -52 -153 -67
18 -260 108 -234 108 26 0 95 32 119 56 12 11 10 15 -15 25 -35 14 -87 13
-114 -1 -11 -6 -20 -9 -20 -8 0 2 7 24 14 50 16 51 12 105 -9 127 -11 11 -16
9 -29 -12 -21 -32 -36 -82 -37 -127 0 -21 -3 -29 -7 -20 -25 56 -98 110 -148
110 -26 0 -34 -4 -34 -18 0 -30 47 -85 102 -119 50 -32 51 -33 22 -33 -51 0
-154 -64 -134 -83 3 -3 22 -7 43 -10 35 -5 66 0 107 17 12 5 15 -3 15 -43 0
-69 16 -82 46 -39 17 24 24 46 23 79 l0 46 75 -45 c188 -110 231 -149 232
-210 0 -20 1 -75 3 -121 l3 -83 -18 33 c-19 38 -64 83 -92 92 -38 14 0 -109
49 -157 12 -12 5 -14 -44 -13 -35 0 -69 -5 -87 -15 l-29 -16 34 -21 c35 -21
50 -24 103 -24 28 1 28 1 11 -25 -9 -14 -17 -40 -16 -57 0 -26 -5 -33 -49 -53
-27 -13 -56 -36 -66 -52 l-17 -29 -17 39 c-16 35 -52 60 -67 46 -3 -4 -6 -24
-6 -46 0 -30 7 -47 27 -68 33 -35 33 -38 2 -46 -48 -12 -101 -126 -59 -126 25
0 69 30 86 58 l15 25 8 -39 c8 -47 26 -83 54 -108 l21 -19 -53 -61 c-28 -33
-62 -72 -74 -85 l-22 -25 -33 33 c-18 18 -46 38 -62 44 l-29 10 55 28 c57 29
123 93 113 110 -17 27 -129 -8 -179 -57 l-35 -34 1 58 c1 56 -24 132 -42 132
-4 0 -15 -17 -23 -37 -16 -41 -14 -94 7 -154 l13 -38 -26 13 c-38 18 -141 7
-141 -15 0 -18 72 -41 117 -37 39 3 42 1 35 -17 -10 -29 -6 -89 8 -115 12 -22
12 -22 32 -3 13 13 20 35 21 62 1 22 3 41 5 41 2 0 16 -7 31 -15 16 -8 47 -16
70 -17 22 -2 41 -4 41 -5 0 -9 -137 -134 -152 -138 -10 -4 -18 -11 -18 -16 0
-6 23 -44 51 -86 28 -41 62 -100 76 -129 l25 -55 65 71 c79 85 141 120 213
120 57 0 93 15 130 54 27 29 93 51 185 61 76 8 181 35 315 80 123 41 124 41
110 16 -18 -34 -12 -106 11 -135 l21 -27 16 22 c17 25 19 97 3 127 -10 19 -7
20 68 18 84 -1 84 -1 42 -46 -35 -37 -55 -130 -27 -130 20 0 74 59 88 97 13
36 28 44 28 15 0 -42 97 -149 117 -129 13 13 -12 92 -41 130 l-32 42 68 0 c50
0 72 4 84 17 16 15 15 18 -17 37 -33 20 -59 25 -109 21 -24 -2 -24 -1 -7 17
20 23 28 94 10 100 -16 6 -73 -47 -78 -72 -2 -11 -4 -30 -4 -42 -1 -23 -1 -23
-42 -7 -27 12 -56 15 -89 11 l-49 -6 9 25 c12 31 13 81 2 88 -14 9 -64 -50
-66 -78 l-1 -25 -26 25 c-28 27 -86 48 -94 34 -11 -18 8 -61 37 -83 l29 -24
-78 -18 c-103 -25 -98 -24 -181 -26 -96 -2 -106 7 -97 85 13 123 22 140 45 88
18 -40 45 -64 88 -77 20 -6 22 -3 22 26 0 40 -60 102 -112 117 -55 15 -122 -2
-153 -40 -19 -23 -23 -33 -14 -39 14 -8 75 -5 100 5 27 11 -14 -120 -47 -156
-34 -35 -129 -66 -219 -72 -86 -5 -115 1 -115 24 0 23 119 189 164 228 86 76
194 97 343 67 48 -10 133 -19 188 -20 177 -4 257 -40 322 -141 7 -11 2 9 -10
43 -21 60 -21 63 -4 80 22 22 108 31 197 20 120 -14 130 -15 130 -7 0 4 -30
15 -67 25 -87 23 -225 29 -267 11 -33 -13 -60 -14 -116 -1 l-35 8 31 26 c17
14 45 47 64 73 25 36 51 57 111 88 73 38 178 82 242 101 l28 8 -21 -33 c-22
-37 -26 -80 -10 -122 10 -26 11 -26 30 -9 11 10 22 33 26 51 6 31 24 58 24 36
0 -25 133 -72 146 -51 13 21 -53 95 -100 112 -30 10 -29 10 30 27 66 18 107
44 123 77 8 18 6 23 -17 31 -31 11 -106 -5 -146 -31 -14 -9 -27 -17 -28 -17
-2 0 -2 26 -1 58 1 65 -17 103 -40 83 -20 -16 -40 -94 -35 -130 l4 -30 -30 22
c-29 20 -88 30 -128 19 -18 -4 -17 -7 13 -38 17 -18 45 -38 61 -45 16 -6 27
-13 26 -15 -2 -1 -52 -17 -111 -34 -127 -37 -148 -33 -140 27 4 34 41 118 103
230 29 52 51 63 49 25 -3 -48 1 -60 27 -91 36 -44 54 -40 54 10 0 22 -4 49
-10 59 -9 17 -7 18 24 9 52 -14 136 6 136 32 0 17 -82 49 -127 49 l-42 0 49
46 c51 47 83 115 64 134 -14 14 -79 -14 -109 -46 -14 -16 -33 -44 -41 -61 -8
-18 -15 -33 -17 -33 -1 0 -4 12 -5 27 -3 33 -37 107 -59 124 -13 11 -17 10
-28 -4 -18 -24 -8 -83 21 -134 l25 -43 -27 11 c-32 12 -76 4 -117 -21 -29 -18
-29 -18 -7 -30 12 -6 48 -17 79 -23 l58 -12 -55 -92 -55 -92 -21 32 c-12 17
-36 41 -54 53 l-32 22 25 6 c28 7 65 43 65 63 0 37 -107 16 -130 -26 -6 -12
-15 -21 -21 -21 -6 0 -7 5 -4 10 9 15 -56 77 -88 85 -15 4 -34 4 -43 1 -14 -5
-14 -9 3 -38 11 -18 34 -43 53 -55 29 -20 30 -23 11 -23 -50 0 -141 -56 -141
-87 0 -16 57 -18 97 -2 15 6 39 20 52 32 23 21 24 21 17 2 -23 -60 -14 -173
15 -191 5 -3 19 16 30 42 16 35 20 61 17 99 l-4 53 30 -30 c31 -32 85 -60 98
-52 31 20 -56 -154 -108 -214 l-34 -40 -46 25 c-30 17 -62 26 -95 27 -50 1
-51 5 -3 34 38 23 85 142 57 142 -20 0 -73 -42 -99 -77 -15 -21 -31 -41 -34
-45 -3 -4 -6 1 -7 13 -3 42 -25 89 -51 110 l-27 21 -9 -41 c-6 -29 -5 -53 6
-84 l14 -45 -25 8 c-28 7 -91 -5 -91 -19 0 -16 49 -53 76 -56 15 -1 45 3 66
11 21 7 38 9 38 5 0 -11 92 -51 117 -51 14 0 15 -2 4 -9 -33 -21 -239 16 -308
55 -61 35 -63 57 -17 161 33 74 47 93 92 127 59 45 91 94 173 263 30 62 59
114 64 117 6 2 9 -16 7 -46 -3 -40 0 -54 23 -83 14 -19 30 -35 35 -35 15 0 22
77 10 101 -11 20 -10 21 6 14 34 -14 109 -17 138 -6 28 11 28 12 10 32 -24 26
-56 40 -112 48 l-42 6 47 35 c55 41 80 74 87 113 4 22 1 27 -17 27 -42 0 -105
-41 -136 -87 l-31 -46 0 34 c0 39 -29 108 -54 128 -22 18 -26 13 -32 -42 -4
-33 0 -57 15 -92 l20 -46 -22 8 c-32 12 -90 7 -121 -9 l-28 -15 24 -15 c31
-20 86 -38 116 -38 23 0 23 -1 10 -22 -8 -13 -30 -50 -48 -83 -18 -33 -42 -73
-52 -90 l-18 -30 0 45 c0 25 -7 58 -15 74 -8 15 -15 29 -15 30 0 1 18 2 41 3
23 0 48 8 56 16 13 13 11 17 -14 36 -28 23 -73 25 -117 6 -17 -7 -18 -5 -13
15 14 52 -60 156 -84 119 -14 -23 -10 -62 11 -96 l19 -32 -25 9 c-44 17 -111
15 -141 -5 l-28 -19 40 -18 c26 -12 58 -17 92 -16 l52 3 -29 -30 c-16 -16 -36
-47 -44 -67 -17 -40 -21 -88 -8 -88 19 0 80 62 97 99 10 23 22 41 27 41 5 0 7
-4 4 -8 -8 -13 53 -112 69 -112 8 0 15 -6 15 -13 0 -16 -61 -81 -113 -120 -20
-15 -58 -60 -84 -100 -70 -106 -105 -94 -117 38 -3 33 -9 94 -13 135 -4 41 -8
138 -7 215 1 233 34 286 243 390 36 18 80 36 98 40 l31 6 -18 -36 c-12 -24
-17 -50 -14 -73 5 -43 31 -85 45 -76 21 13 39 73 33 111 l-6 37 36 -32 c49
-43 136 -66 152 -40 10 16 -69 87 -106 95 -17 3 -33 10 -36 15 -3 4 -2 7 3 6
34 -10 143 77 143 115 0 38 -101 10 -156 -44 l-31 -30 7 38 c7 42 -10 104 -35
129 -14 14 -17 12 -31 -22 -9 -22 -14 -57 -12 -85 l3 -48 -30 19 c-29 18 -115
43 -115 33 0 -15 34 -65 60 -86 16 -14 30 -28 30 -30 0 -2 -19 -9 -42 -16 -23
-7 -66 -24 -97 -38 -68 -32 -123 -40 -138 -22 -11 15 -53 135 -53 153 0 6 12
-2 26 -17 30 -32 61 -46 122 -54 53 -6 56 11 8 61 -31 33 -48 41 -86 37 -8 -1
6 11 31 26 48 27 86 74 94 112 2 11 -1 21 -6 21 -25 0 -87 -34 -119 -65 l-35
-34 0 62 c-1 98 -53 160 -76 90z m7 -1166 l0 -123 -35 18 c-20 10 -57 18 -87
18 l-51 0 38 40 c22 23 41 54 44 74 5 25 13 36 31 40 13 4 31 17 41 31 10 13
18 25 19 25 1 0 1 -55 0 -123z m-59 -163 c24 3 48 8 53 11 26 16 6 -15 -27
-41 -20 -16 -51 -45 -70 -64 l-33 -35 0 26 c0 14 -11 48 -25 75 -14 27 -25 50
-25 50 0 1 19 -5 42 -13 25 -9 60 -12 85 -9z"/>
<path d="M3896 2724 c-14 -37 -5 -73 27 -107 l32 -35 -31 -11 c-44 -16 -92
-92 -75 -119 13 -21 69 7 96 46 l25 37 0 -30 c1 -64 71 -166 92 -132 15 24
-10 116 -40 151 -16 18 -16 19 3 12 64 -24 139 -25 178 -4 20 10 20 11 -4 29
-26 20 -74 32 -131 33 l-36 0 39 44 c21 25 39 50 40 56 0 6 2 19 4 29 4 22
-16 22 -57 1 -36 -19 -67 -52 -68 -74 0 -8 -9 2 -20 24 -18 35 -45 65 -61 66
-4 0 -10 -7 -13 -16z"/>
<path d="M3335 2314 c-36 -15 -66 -46 -93 -97 -21 -40 -25 -39 -35 4 -9 34
-45 79 -64 79 -13 0 -15 -10 -11 -57 3 -32 9 -66 13 -76 6 -15 4 -16 -18 -8
-13 5 -31 9 -38 7 -36 -6 -59 -19 -59 -32 0 -16 59 -56 72 -48 42 26 -132
-146 -181 -178 -32 -22 -90 -23 -117 -4 -19 15 -19 15 1 12 29 -4 70 12 94 38
l22 23 -43 12 c-32 9 -51 9 -71 2 -40 -15 -41 -15 -19 22 25 40 35 87 26 121
-14 57 -61 9 -79 -83 l-11 -54 -21 35 c-33 56 -123 113 -138 87 -10 -16 34
-87 77 -123 32 -26 37 -34 22 -32 -55 11 -160 -42 -135 -67 13 -13 118 -15
146 -3 16 7 18 7 8 -5 -16 -16 -17 -91 -2 -106 8 -8 3 -16 -20 -27 -17 -9 -55
-40 -85 -69 -30 -29 -72 -69 -95 -90 -56 -54 -70 -118 -65 -302 2 -77 5 -149
8 -160 2 -11 5 -27 6 -35 0 -8 24 29 52 83 92 177 191 250 343 252 44 1 89 7
100 13 36 19 182 52 230 52 70 0 124 -35 151 -99 19 -45 18 -54 -5 -41 -29 15
-52 12 -94 -10 l-37 -20 0 35 c0 40 -50 105 -81 105 -35 0 -20 -87 20 -117 13
-9 2 -11 -50 -10 -54 1 -71 -3 -99 -23 l-34 -24 34 -14 c33 -13 104 -12 145 4
19 7 19 6 -2 -17 -39 -43 -69 -158 -44 -173 17 -11 71 58 88 111 l16 52 17
-37 c25 -53 90 -106 104 -84 9 14 -14 94 -35 124 l-20 28 28 0 c16 0 39 7 51
16 13 9 23 11 23 5 1 -6 2 -14 3 -18 2 -5 6 -39 10 -78 4 -38 9 -85 12 -102 2
-18 3 -33 1 -33 -1 0 -22 6 -47 14 -49 15 -90 7 -90 -18 0 -20 37 -44 78 -52
l35 -7 -29 -12 c-53 -22 -114 -100 -99 -125 9 -15 75 13 111 47 l36 33 -5 -35
c-9 -63 29 -155 63 -155 32 0 42 112 16 173 -16 39 -13 46 10 23 24 -24 101
-49 130 -42 24 6 25 8 11 29 -22 33 -81 78 -106 80 l-22 1 23 18 c13 10 26 18
29 18 7 0 29 46 29 60 0 18 -67 10 -92 -10 -14 -10 -31 -33 -38 -50 -7 -16
-16 -27 -21 -24 -6 4 -7 253 0 297 0 4 10 7 20 7 11 0 23 5 27 11 24 39 158
62 232 40 17 -5 32 -6 32 -1 0 26 -153 47 -220 30 -81 -21 -91 -19 -123 28
-16 24 -31 60 -34 81 -7 48 20 80 158 191 93 75 100 79 161 85 35 4 92 5 126
2 34 -2 60 -1 56 2 -3 3 -9 6 -12 7 -4 0 -27 4 -52 8 -25 4 -63 9 -85 11 -22
1 -44 3 -49 4 -10 1 27 36 102 98 23 20 44 34 47 32 2 -3 5 -24 6 -48 2 -33
11 -52 40 -84 l36 -41 -38 -17 c-36 -17 -76 -74 -75 -106 2 -32 72 -10 95 28
l19 32 12 -43 c12 -46 63 -106 80 -95 16 10 12 73 -9 115 l-18 39 24 -10 c36
-13 136 -11 157 4 17 13 17 14 -6 29 -32 21 -84 34 -130 33 l-36 -1 38 43 c21
24 40 57 42 74 5 29 3 31 -24 25 -37 -7 -72 -33 -94 -71 l-18 -30 -7 32 c-3
18 -13 43 -22 57 -16 24 -16 24 16 16 41 -9 121 10 125 30 3 20 -50 40 -103
40 l-38 0 21 23 c45 48 71 153 35 140 -31 -10 -75 -56 -93 -97 l-18 -38 -12
36 c-12 37 -60 96 -79 96 -16 0 -13 -90 4 -124 20 -37 21 -36 -22 -36 -21 0
-47 -8 -58 -16 -20 -15 -20 -15 4 -35 21 -17 42 -24 64 -20 17 3 3 -10 -60
-55 -38 -26 -100 -75 -139 -108 -194 -167 -254 -205 -318 -208 -44 -2 -56 7
-56 43 0 52 87 206 129 229 14 7 16 3 13 -32 -5 -43 18 -97 49 -116 16 -10 19
-7 25 23 3 19 3 47 0 61 -7 25 -5 26 21 19 57 -16 143 -7 143 14 0 25 -118 80
-140 66 -5 -3 -11 -1 -14 4 -4 5 10 19 29 31 42 26 81 74 90 113 7 25 5 27
-21 27 -25 1 -26 2 -11 11 9 5 17 14 17 18 0 14 -78 41 -119 41 l-39 0 38 38
c39 39 64 101 52 131 -6 16 -11 16 -37 5z m-144 -221 c-13 -25 -6 -94 13 -131
21 -40 20 -45 -3 -32 -36 19 -141 3 -141 -21 0 -11 66 -45 105 -53 l31 -7 -43
-46 c-24 -25 -56 -69 -73 -97 -78 -138 -95 -149 -235 -161 -38 -3 -88 -9 -110
-12 -85 -13 -90 -12 -93 29 -4 48 30 95 101 139 162 99 185 119 266 227 84
113 107 136 156 164 38 22 38 22 26 1z m165 -28 l27 3 -36 -32 c-20 -17 -44
-46 -55 -63 l-19 -33 -1 40 c-1 23 -9 54 -17 70 -8 16 -15 31 -15 34 0 2 20
-2 44 -9 24 -7 56 -12 72 -10z m-566 -221 c0 -23 -33 -54 -58 -54 -12 0 -11 5
2 25 9 13 16 39 16 56 0 31 0 32 20 14 11 -10 20 -28 20 -41z"/>
<path d="M1445 2065 c-12 -28 -16 -56 -12 -97 l5 -59 -34 26 c-64 49 -164 74
-164 42 0 -25 72 -86 122 -104 l50 -18 -35 -15 c-48 -21 -85 -53 -96 -84 -10
-26 -10 -26 32 -20 23 2 60 16 83 29 l41 24 -5 -24 c-6 -32 4 -70 24 -90 15
-15 18 -14 31 5 22 31 31 73 22 98 -8 21 -7 22 14 11 12 -7 33 -20 47 -29 33
-23 165 -70 195 -70 34 0 182 -70 263 -124 107 -71 245 -224 313 -349 32 -59
38 -48 34 59 -5 137 -65 249 -180 336 -56 42 -224 112 -308 127 -80 14 -93 24
-127 89 -59 115 -93 146 -50 46 12 -26 20 -62 18 -78 -3 -30 -4 -31 -47 -28
-25 2 -57 10 -73 18 -15 8 -28 12 -28 9 0 -3 -19 5 -42 17 l-43 22 35 6 c48 9
75 25 100 60 22 31 20 35 -20 42 -25 4 -74 -13 -96 -33 l-21 -19 10 59 c11 68
6 98 -22 132 l-20 24 -16 -40z"/>
<path d="M3580 1754 c-19 -8 -45 -29 -58 -48 -14 -21 -34 -36 -52 -39 -34 -7
-80 -69 -80 -108 0 -23 3 -26 25 -21 25 4 61 34 82 68 11 18 12 18 13 -6 1
-54 58 -140 92 -140 13 0 9 69 -7 106 -14 35 -14 35 8 27 31 -11 130 -10 134
2 4 15 -60 55 -107 67 l-41 11 33 19 c37 22 69 58 62 70 -8 13 -66 8 -104 -8z"/>
<path d="M3676 1528 c-11 -44 -6 -77 19 -106 25 -30 31 -44 18 -40 -5 2 -21
-3 -38 -10 -34 -15 -61 -47 -71 -86 -5 -22 -3 -26 16 -26 30 0 61 17 87 48
l23 27 0 -38 c0 -46 20 -96 49 -122 19 -16 24 -17 31 -5 12 20 2 99 -18 140
l-17 35 38 -19 c43 -21 111 -28 146 -15 20 8 21 12 10 25 -20 25 -62 42 -118
50 l-52 7 36 29 c34 28 65 75 65 98 0 30 -86 -3 -126 -48 -23 -26 -23 -26 -24
-5 0 21 -44 83 -60 83 -4 0 -10 -10 -14 -22z"/>
<path d="M1754 1285 c-90 -45 -117 -120 -89 -243 37 -160 167 -307 337 -381
24 -10 104 -48 178 -83 74 -36 162 -74 196 -86 80 -27 277 -79 334 -88 25 -3
54 -8 65 -10 233 -40 518 -64 529 -45 3 4 -3 7 -12 8 -40 3 -238 58 -391 109
-263 87 -518 220 -648 338 -65 58 -137 155 -237 316 -99 158 -128 190 -176
190 -20 0 -58 -11 -86 -25z"/>
<path d="M1081 1066 c-31 -17 -50 -53 -51 -94 l0 -32 -33 13 c-39 17 -92 13
-126 -10 l-25 -16 25 -19 c18 -15 34 -19 66 -15 l43 5 -32 -40 c-22 -29 -32
-54 -36 -89 -2 -27 -1 -49 3 -49 20 0 66 45 85 85 12 25 24 45 26 45 3 0 3 -4
0 -8 -3 -5 6 -31 18 -59 23 -48 84 -101 104 -89 7 4 8 38 3 82 0 7 -17 35 -36
64 l-35 52 33 -8 c65 -14 143 2 135 28 -7 21 -73 48 -116 48 l-43 0 20 28 c20
27 24 42 22 75 -1 20 -17 21 -50 3z"/>
<path d="M1631 895 c-45 -39 -66 -104 -65 -206 3 -201 100 -286 359 -315 93
-10 249 -45 300 -66 60 -26 223 -117 231 -129 9 -16 24 -10 24 9 0 28 -56 133
-89 168 -75 79 -254 195 -462 299 -67 34 -124 71 -153 99 -48 48 -86 112 -86
146 0 27 -22 25 -59 -5z"/>
<path d="M1505 683 c-75 -100 -159 -151 -360 -219 -168 -56 -282 -108 -351
-160 -89 -66 -80 -75 24 -24 122 60 227 86 382 95 228 14 314 57 340 170 7 32
4 164 -4 172 -2 2 -16 -13 -31 -34z"/>
</g>
</svg>
